<svg height="512pt" viewBox="0 0 512 512" width="512pt" xmlns="http://www.w3.org/2000/svg"><path d="m512 256c0 141.386719-114.613281 256-256 256s-256-114.613281-256-256 114.613281-256 256-256 256 114.613281 256 256zm0 0" fill="#ffaa20"/><path d="m505.984375 200.667969-99.402344-99.503907c-31.988281-31.988281-81.824219-35.214843-117.441406-9.722656l-6.210937-6.210937-21.210938 21.214843 6.210938 6.210938c-9.085938 12.691406-14.523438 27.191406-16.3125 42.046875l-22.085938-22.089844-7.65625 3.84375-12.535156-12.207031-5.257813 15.859375-14.933593-7.496094 7.496093 14.933594-15.859375 5.257813-11.183594-9.667969-16.210937 8.136719-26.15625-25.6875-11.035156 33.277343-31.335938-15.726562 15.726563 31.332031-33.273438 11.039062 25.714844 26.09375-8.167969 16.273438 61.492188 61.488281-50.464844 50.464844 10.933594 10.9375-28.546875 28.542969 127.8125 127.8125c16.144531 3.191406 32.828125 4.878906 49.910156 4.878906 141.386719 0 256-114.613281 256-256 0-19-2.089844-37.511719-6.015625-55.332031zm0 0" fill="#ff8900"/><path d="m397.957031 363.679688-8.757812-26.410157-24.867188 12.480469 12.480469-24.867188-26.410156-8.761718 26.410156-8.757813-12.480469-24.867187 24.867188 12.480468 8.757812-26.410156 8.761719 26.410156 24.867188-12.480468-12.480469 24.867187 26.40625 8.757813-26.40625 8.761718 12.480469 24.867188-24.867188-12.480469zm0 0" fill="#54fbff"/><path d="m127.230469 245.425781-11.035157-33.277343-31.332031 15.726562 15.726563-31.335938-33.277344-11.035156 33.277344-11.035156-15.726563-31.332031 31.332031 15.726562 11.035157-33.277343 11.035156 33.277343 31.335937-15.726562-15.726562 31.332031 33.273438 11.035156-33.273438 11.035156 15.726562 31.335938-31.335937-15.726562zm0 0" fill="#ffe670"/><path d="m209.339844 181.359375-5.261719-15.859375-14.929687 7.496094 7.492187-14.933594-15.855469-5.257812 15.855469-5.257813-7.492187-14.933594 14.929687 7.492188 5.261719-15.855469 5.257812 15.855469 14.929688-7.492188-7.492188 14.933594 15.859375 5.257813-15.859375 5.257812 7.492188 14.933594-14.929688-7.496094zm0 0" fill="#fff"/><path d="m293.40625 407.980469-6.855469-20.671875-19.46875 9.769531 9.769531-19.46875-20.671874-6.855469 20.671874-6.855468-9.769531-19.46875 19.46875 9.769531 6.855469-20.671875 6.855469 20.671875 19.46875-9.769531-9.769531 19.46875 20.671874 6.855468-20.671874 6.855469 9.769531 19.46875-19.46875-9.769531zm0 0" fill="#ffd400"/><path d="m111.03125 346.558594 50.15625 50.15625-32.75 32.75-50.15625-50.15625zm0 0" fill="#fff5cb"/><path d="m103.351562 404.386719 32.753907-32.75 25.078125 25.078125-32.75 32.753906zm0 0" fill="#ffed97"/><path d="m258.605469 177.105469 72.03125 72.027343-162.71875 162.722657-72.03125-72.03125zm0 0" fill="#fff"/><path d="m131.898438 375.84375 162.71875-162.71875 36.011718 36.011719-162.71875 162.71875zm0 0" fill="#fff5cb"/><path d="m406.578125 101.167969c-35.605469-35.605469-93.328125-35.605469-128.929687 0-35.601563 35.601562-35.601563 93.324219 0 128.925781 35.601562 35.601562 93.324218 35.601562 128.929687 0 35.601563-35.601562 35.601563-93.324219 0-128.925781zm0 0" fill="#57555c"/><path d="m406.582031 230.097656c-3.613281 3.613282-7.453125 6.855469-11.476562 9.734375-20.765625 14.871094-46.378907 19.964844-70.453125 15.289063-17.21875-3.34375-33.667969-11.6875-47.003906-25.023438l128.9375-128.933594c31.988281 31.988282 35.234374 81.847657 9.734374 117.457032-2.878906 4.023437-6.125 7.859375-9.738281 11.476562zm0 0" fill="#2a2a2c"/><path d="m261.714844 106.445312 21.214844-21.210937 139.582031 139.582031-21.214844 21.210938zm0 0" fill="#54fbff"/><path d="m331.507812 176.238281 21.210938-21.214843 69.792969 69.792968-21.214844 21.210938zm0 0" fill="#00d6d6"/><path d="m236.964844 291.992188-19.738282 19.738281c-5.855468 5.859375-15.355468 5.859375-21.210937 0-5.859375-5.859375-5.859375-15.355469 0-21.214844l19.738281-19.738281c5.855469-5.855469 15.355469-5.855469 21.210938 0 5.859375 5.859375 5.859375 15.355468 0 21.214844zm0 0" fill="#54fbff"/><path d="m236.96875 291.988281-19.742188 19.742188c-5.855468 5.855469-15.359374 5.855469-21.210937 0l40.953125-40.953125c2.929688 2.925781 4.390625 6.765625 4.386719 10.605468.003906 3.839844-1.457031 7.679688-4.386719 10.605469zm0 0" fill="#00d6d6"/><g fill="#57555c"><path d="m233.957031 273.785156c-4.410156-4.410156-11.5625-4.410156-15.972656 0s-4.410156 11.5625 0 15.972656c4.410156 4.410157 11.5625 4.410157 15.972656 0 4.410157-4.410156 4.410157-11.5625 0-15.972656zm0 0"/><path d="m233.957031 289.753906c-4.410156 4.410156-11.554687 4.410156-15.964843 0l15.964843-15.96875c4.414063 4.414063 4.414063 11.558594 0 15.96875zm0 0"/></g></svg>